<?xml version="1.0" standalone="no"?>
<svg xmlns="http://www.w3.org/2000/svg" viewBox="0 0 190.322 36" width="190.322" height="36"><g fill="#a16aff" color="#a16aff" transform="translate(0 6) scale(0.4705883)"><svg width="44.0" height="51.0" x="0.0" y="0.0" viewBox="0 0 44 51"><path fill="currentColor" fill-rule="evenodd" d="M22 0L0 12.571v25.143l22 12.572 21.994-12.568.006-.01V12.571L22 0zM6.354 13.778L22 4.84l15.645 8.938-4.231 2.419L22 9.678l-11.411 6.52-4.235-2.42zm17.764 10.158v-8.21L31.3 19.83v8.208l-7.182-4.101zm-11.416-4.107l7.18-4.102v8.207l-7.18 4.103v-8.208zm11.416 19.57l11.415-6.522V19.826l4.233-2.42v17.89l-15.648 8.941v-4.838zM4.233 35.296v-17.89l4.233 2.42v13.049l11.416 6.524v4.838l-15.649-8.94zm10.583-3.63l7.182-4.104 7.183 4.104L22 35.768l-7.184-4.102z"></path></svg></g><path fill="#5e00ff" fill-rule="nonzero" d="M12.38 13.13L12.38 13.13Q12.38 15.50 11.10 16.78Q9.82 18.05 7.51 18.05L7.51 18.05L5.21 18.05Q2.38 18.05 1.19 17.06Q0 16.08 0 13.66L0 13.66L0 0.96L7.22 0.96Q9.67 0.96 10.91 2.18Q12.14 3.41 12.14 5.64L12.14 5.64Q12.14 6.94 11.48 7.85Q10.82 8.76 10.03 9.14L10.03 9.14Q12.38 10.25 12.38 13.13ZM3.34 7.63L6.96 7.63Q8.81 7.63 8.81 5.78Q8.81 3.94 6.96 3.94L6.96 3.94L3.34 3.94L3.34 7.63ZM9.05 12.96L9.05 12.96Q9.05 11.81 8.64 11.22Q8.23 10.63 7.18 10.63L7.18 10.63L3.34 10.63L3.34 13.32Q3.34 14.30 3.83 14.69Q4.32 15.07 5.45 15.07L5.45 15.07L7.18 15.07Q9.05 15.07 9.05 12.96ZM25.80 4.34L25.80 18.05L23.47 18.05L22.75 16.42L18.91 18.19Q17.30 18.19 16.12 17.00Q14.93 15.82 14.93 13.54L14.93 13.54L14.93 4.34L18.05 4.34L18.05 12.86Q18.05 15.14 19.87 15.14L19.87 15.14L22.68 13.63L22.68 4.34L25.80 4.34ZM38.71 14.26L38.71 14.26L38.71 14.62Q38.57 16.42 37.19 17.33Q35.81 18.24 33.74 18.24L33.74 18.24Q30.70 18.24 29.47 17.14L29.47 17.14Q28.34 16.13 28.34 14.16L28.34 14.16L28.34 13.87L31.18 13.87Q31.18 14.98 31.75 15.38Q32.33 15.79 33.74 15.79L33.74 15.79Q35.66 15.79 35.66 14.40L35.66 14.40Q35.66 13.25 34.99 12.86L34.99 12.86Q34.68 12.67 34.20 12.58L34.20 12.58L31.78 12.17Q28.61 11.66 28.61 8.21L28.61 8.21Q28.61 6.29 30.01 5.22Q31.42 4.15 33.58 4.15L33.58 4.15Q38.50 4.15 38.50 8.40L38.50 8.40L38.50 8.71L35.78 8.71Q35.74 7.58 35.18 7.18Q34.63 6.77 33.64 6.77Q32.64 6.77 32.14 7.16Q31.63 7.56 31.63 8.04L31.63 8.04Q31.63 9.41 32.74 9.60L32.74 9.60L35.64 10.13Q38.71 10.70 38.71 14.26ZM48.34 13.03L48.34 13.03L51.17 13.01Q51.14 13.20 51.12 13.70Q51.10 14.21 51.08 14.39Q51.07 14.57 51.02 14.95Q50.98 15.34 50.92 15.52Q50.86 15.70 50.76 15.98L50.76 15.98Q50.33 17.23 48.41 17.95L48.41 17.95Q47.18 18.38 45.85 18.38Q44.52 18.38 43.44 17.95Q42.36 17.52 41.74 16.85L41.74 16.85Q40.32 15.36 40.32 11.27Q40.32 7.18 41.74 5.69L41.74 5.69Q42.36 5.02 43.44 4.58Q44.52 4.15 45.84 4.15L45.84 4.15Q48.43 4.15 49.78 5.45Q51.12 6.74 51.12 9.05L51.12 9.05L48.29 9.05Q48.29 7.99 47.76 7.48Q47.23 6.96 45.80 6.96Q44.38 6.96 43.91 7.85Q43.44 8.74 43.44 10.51L43.44 10.51L43.44 11.76Q43.44 14.62 44.54 15.26L44.54 15.26Q45.05 15.58 45.86 15.58Q46.68 15.58 47.20 15.42Q47.71 15.26 47.94 14.88Q48.17 14.50 48.24 14.12Q48.31 13.75 48.34 13.03ZM63.22 4.25L63.22 18.05L61.13 18.05L60.17 16.39L56.83 18.19Q54.05 18.19 53.09 16.18L53.09 16.18Q52.61 15.19 52.43 14.05Q52.25 12.91 52.25 11.68Q52.25 10.44 52.27 9.85Q52.30 9.26 52.39 8.48Q52.49 7.70 52.67 7.18Q52.85 6.65 53.18 6.08Q53.52 5.52 54 5.18L54 5.18Q55.08 4.44 56.81 4.44L56.81 4.44L60.10 4.44L63.22 4.25ZM57.72 14.90L60.10 13.68L60.10 7.25L57.72 7.25Q56.40 7.25 55.88 8.26Q55.37 9.26 55.37 11.27Q55.37 13.27 55.86 14.09Q56.35 14.90 57.72 14.90L57.72 14.90ZM75.96 11.16L79.78 18.05L75.91 18.05L72.58 11.71L70.18 11.71L70.18 18.05L66.84 18.05L66.84 4.63Q66.84 2.71 67.73 1.84Q68.62 0.96 70.70 0.96L70.70 0.96L73.54 0.96Q76.08 0.96 77.58 2.51Q79.08 4.06 79.08 6.43L79.08 6.43Q79.08 8.16 78.18 9.42Q77.28 10.68 75.96 11.16L75.96 11.16ZM73.32 8.93Q74.38 8.93 75.06 8.20Q75.74 7.46 75.74 6.37Q75.74 5.28 75.08 4.61Q74.42 3.94 73.32 3.94L73.32 3.94L71.66 3.94Q70.18 3.94 70.18 5.45L70.18 5.45L70.18 8.93L73.32 8.93ZM92.54 4.34L92.54 18.05L90.22 18.05L89.50 16.42L85.66 18.19Q84.05 18.19 82.86 17.00Q81.67 15.82 81.67 13.54L81.67 13.54L81.67 4.34L84.79 4.34L84.79 12.86Q84.79 15.14 86.62 15.14L86.62 15.14L89.42 13.63L89.42 4.34L92.54 4.34ZM106.68 8.86L106.68 18.05L103.56 18.05L103.56 9.29Q103.56 8.11 103.08 7.68Q102.60 7.25 101.74 7.25L101.74 7.25L98.93 8.42L98.93 18.05L95.81 18.05L95.81 4.34L98.14 4.34L98.86 5.98L102.70 4.20Q104.30 4.20 105.49 5.39Q106.68 6.58 106.68 8.86L106.68 8.86ZM121.56 13.01L121.56 13.01Q121.56 15.43 119.78 16.81Q118.01 18.19 115.25 18.19L115.25 18.19Q113.06 18.19 111.02 16.99L111.02 16.99Q110.02 16.37 109.37 15.23Q108.72 14.09 108.72 12.62L108.72 12.62L111.74 12.48Q111.74 13.78 112.85 14.50Q113.95 15.22 115.30 15.22L115.30 15.22Q118.30 15.22 118.30 13.10L118.30 13.10Q118.30 11.38 116.26 11.06L116.26 11.06L113.47 10.78Q111.38 10.46 110.16 9.29Q108.94 8.11 108.94 5.90Q108.94 3.70 110.69 2.26Q112.44 0.82 115.12 0.82Q117.79 0.82 119.42 2.17Q121.06 3.53 121.06 5.66L121.06 5.66L118.08 5.81Q117.67 3.72 115.27 3.72L115.27 3.72Q113.81 3.72 112.98 4.34Q112.15 4.97 112.15 5.82Q112.15 6.67 112.75 7.16Q113.35 7.66 114.24 7.78L114.24 7.78L116.98 8.06Q121.56 8.69 121.56 13.01ZM134.57 8.76L134.57 18.05L131.45 18.05L131.45 9.46Q131.45 7.25 129.72 7.25L129.72 7.25L126.74 8.42L126.74 18.05L123.62 18.05L123.62 0L126.74 0L126.74 5.98L130.70 4.20Q132.82 4.20 133.69 5.40Q134.57 6.60 134.57 8.76L134.57 8.76ZM145.06 11.86L145.06 11.86L145.06 10.61Q145.06 8.83 144.54 7.90Q144.02 6.96 142.39 6.96L142.39 6.96Q139.75 6.96 139.75 10.51L139.75 10.51L139.75 11.76Q139.75 15.58 142.39 15.58L142.39 15.58Q144.10 15.58 144.62 14.30L144.62 14.30Q145.06 13.30 145.06 11.86ZM148.18 11.14L148.18 11.14Q148.18 15.58 146.50 17.09L146.50 17.09Q145.08 18.38 142.39 18.38L142.39 18.38Q138.96 18.38 137.76 16.37L137.76 16.37Q136.63 14.52 136.63 11.14L136.63 11.14Q136.63 7.97 137.76 6.17L137.76 6.17Q139.01 4.15 142.31 4.15Q145.61 4.15 146.89 5.92Q148.18 7.68 148.18 11.14ZM161.62 10.82L161.62 10.82Q161.62 16.18 158.86 17.66L158.86 17.66Q157.73 18.26 156.10 18.26L156.10 18.26L153.79 16.78L153.79 22.13L150.67 22.13L150.67 4.44L156.82 4.44Q159.60 4.44 160.61 6.01Q161.62 7.58 161.62 10.82ZM158.50 11.30L158.50 11.30Q158.50 7.25 155.90 7.25L155.90 7.25L153.79 7.25L153.79 13.61L155.90 14.98Q157.30 14.98 157.90 14.10Q158.50 13.22 158.50 11.30Z" transform="translate(28.706, 8.976)"></path></svg>